<svg width="591" height="100" xmlns="http://www.w3.org/2000/svg"><g fill="none" stroke="#fff" stroke-linecap="square" stroke-linejoin="round" stroke-width="6"><path d="M517.23 68.215a35.5 33.2 0 0 1-11.936-26.458 35.5 33.2 0 0 1 14.593-25.266M561.62 16.49a35.5 33.2 0 0 1 14.593 25.266 35.5 33.2 0 0 1-11.936 26.458M551.57 29.079a18.4 19 0 0 1 7.564 14.46 18.4 19 0 0 1-6.187 15.142M528.56 58.681a18.4 19 0 0 1-6.187-15.142 18.4 19 0 0 1 7.564-14.46"/></g><g fill="none"><path d="M540.75 40.25v41.5h-322v-.5h322" stroke="#fff" stroke-width="4.5"/><path d="M13 81.5h58zm76 0h128z" stroke="#ccc" stroke-width="5"/></g><g aria-label="OpenWebRX"><path d="M207.85 45.906c0-11.755-5.104-17.787-14.771-17.787-5.877 0-10.363 2.475-13.688 7.579v-6.574h-6.96v42.301h6.96V47.53c0-8.352 4.717-13.379 12.141-13.379 6.264 0 9.357 4.022 9.357 11.987v25.288h6.96zm-53.515.619h-24.747c.696-7.966 5.645-12.528 13.301-12.528 6.805 0 11.368 4.794 11.445 12.528zm6.96 2.01c0-12.683-7.192-20.416-18.483-20.416-12.605 0-20.725 8.662-20.725 22.581 0 13.301 8.352 21.808 21.963 21.808 5.336 0 10.595-1.082 15.621-3.248v-6.573c-4.872 2.63-9.821 3.944-15.235 3.944-9.203 0-14.461-5.104-15.08-14.693h31.939zm-54.907 1.78c0 10.44-4.64 16.394-11.832 16.394-7.192 0-11.832-5.955-11.832-16.395s4.64-16.395 11.832-16.395c7.192 0 11.832 5.955 11.832 16.395zm-23.664 14.77c2.939 5.027 7.347 7.424 13.533 7.424 10.053 0 17.323-8.661 17.323-22.195S106.31 28.12 96.257 28.12c-6.187 0-10.595 2.397-13.533 7.424v-6.419h-6.96v58.387h6.96zm-44.389-51.04c-15.699 0-26.139 11.291-26.139 29.232 0 18.02 10.44 29.232 26.139 29.232s26.061-11.29 26.061-29.232-10.363-29.232-26.061-29.232zm0 6.187c10.827 0 18.019 8.506 18.019 23.045s-7.192 23.045-18.019 23.045-18.096-8.507-18.096-23.045 7.27-23.045 18.096-23.045z" fill="#ccc"/><path d="m480.99 42.658 18.792-27.608h-15.235l-12.296 18.173-12.373-18.173h-15.157l18.792 27.608-19.565 28.768h15.235l13.069-19.256 13.147 19.256h15.157zm-76.405 7.424h4.099c5.026 0 7.269 2.01 9.898 7.347l6.883 13.997h15.467l-7.888-16.008c-2.939-5.955-5.8-9.358-10.13-10.363 7.268-2.243 10.826-7.038 10.826-14.461 0-10.904-6.883-15.544-21.499-15.544h-22.195v56.376h14.54zm6.11-10.053h-6.11V25.568h6.11c5.954 0 8.506 1.933 8.506 7.192s-2.552 7.27-8.507 7.27zm-62.873-4.485V12.653h-6.96v58.773h6.96v-6.342c2.939 5.027 7.347 7.424 13.533 7.424 10.053 0 17.323-8.66 17.323-22.195s-7.269-22.195-17.323-22.195c-6.186 0-10.595 2.398-13.533 7.424zm23.664 14.77c0 10.44-4.64 16.396-11.832 16.396s-11.832-5.955-11.832-16.395 4.64-16.395 11.832-16.395 11.832 5.954 11.832 16.395zm-48.72-3.789H298.02c.696-7.965 5.646-12.528 13.301-12.528 6.806 0 11.368 4.795 11.445 12.528zm6.96 2.011c0-12.683-7.192-20.416-18.483-20.416-12.605 0-20.725 8.661-20.725 22.581 0 13.301 8.352 21.808 21.963 21.808 5.336 0 10.595-1.083 15.621-3.248v-6.573c-4.872 2.63-9.821 3.944-15.235 3.944-9.202 0-14.46-5.104-15.08-14.693h31.94zm-112.75-33.485 14.152 56.376h9.59l11.987-48.952 11.909 48.952h9.589l14.152-56.376h-7.733L268.79 62.688l-11.832-47.637h-8.584l-11.832 47.637-11.832-47.637z" fill="#fff"/></g></svg>